<?xml version="1.0" encoding="UTF-8"?>
<svg id="Warstwa_1" data-name="Warstwa 1" xmlns="http://www.w3.org/2000/svg" viewBox="0 0 151.48 151.48">
  <defs>
    <style>
      .cls-1 {
        fill: #3d50f4;
      }
    </style>
  </defs>
  <polygon class="cls-1" points="70.6 82.12 59.97 85.19 58.18 85.7 59.93 91.77 69.45 89.02 70.6 82.12"/>
  <polygon class="cls-1" points="80.85 82.12 82.01 89.02 91.53 91.77 93.28 85.7 91.48 85.19 80.85 82.12"/>
  <path class="cls-1" d="M135.17,99.91l-3.07-17.04c-1.9-10.58-1.9-28.46,0-39.03l3.05-16.92c.35-1.96-.26-3.99-1.65-5.42-1.39-1.43-3.4-2.11-5.37-1.82l-27.28,4.04c-5.31.79-10.73,1.18-16.1,1.18h-18.05c-5.37,0-10.79-.4-16.1-1.18l-27.28-4.04c-1.97-.29-3.98.39-5.37,1.82-1.39,1.43-2.01,3.46-1.65,5.42l3.05,16.92c1.91,10.58,1.91,28.45,0,39.03l-3.07,17.04c-.35,1.96.26,3.99,1.65,5.42,1.18,1.21,2.8,1.89,4.46,1.89.3,0,.6-.02.9-.07l17.55-2.6c1.78,2.04,4.21,3.5,6.95,4,.17.03.35.05.52.07,2.11,13.16,13.53,23.24,27.28,23.24s25.19-10.11,27.28-23.29c2.38-.4,4.58-1.48,6.37-3.18,2.44-2.31,3.83-5.55,3.83-8.91,0-3.55-1.53-6.85-4.09-9.14,2.49-4.86,3.81-11.31,3.81-15.82,0-9.29-4.42-15.75-9.31-17.68-3.31-8.44-14.6-14.37-27.9-14.37s-24.58,5.93-27.9,14.37c-4.9,1.93-9.31,8.39-9.31,17.68,0,4.55,1.27,10.83,3.72,15.65-3.08,2.65-4.73,6.74-4.18,10.95,0,0,0,.01,0,.02l-14.87,2.2,2.93-16.3c2.06-11.42,2.05-30.01-.01-41.43l-2.92-16.18,26.54,3.93c5.64.83,11.39,1.26,17.09,1.26h18.05c5.7,0,11.45-.42,17.09-1.26l26.54-3.93-2.92,16.18c-2.06,11.42-2.07,30.01-.01,41.43l2.93,16.3-7.98-1.18-.99,6.68,8.72,1.29c1.97.29,3.98-.39,5.37-1.82,1.39-1.43,2.01-3.46,1.65-5.42ZM96.5,104.24c0,11.51-9.37,20.88-20.88,20.88s-20.88-9.37-20.88-20.88v-30.96c0-.05,0-.21.19-.31.06-.03.1-.04.14-.04.06,0,.09.02.12.04,5.46,3.56,12.71,5.52,20.43,5.52s14.96-1.96,20.43-5.52c.05-.03.12-.08.26,0,.19.1.19.26.19.31v30.96ZM104.64,100.51c-.42.4-.89.72-1.39.96v-9.92c1.89.92,3.11,2.84,3.11,4.95,0,1.53-.61,2.95-1.72,4.01ZM50.68,60.01l2.99-2.61c1.44-6.26,11.08-11.17,21.95-11.17s20.51,4.9,21.95,11.17l2.99,2.61c2.5.22,5.52,5.42,5.52,11.53,0,3.93-1.18,8.82-2.83,12.25v-10.51c0-2.61-1.43-5-3.72-6.24-2.27-1.23-5.01-1.12-7.17.28-4.31,2.81-10.41,4.42-16.74,4.42s-12.43-1.61-16.74-4.42c-2.15-1.4-4.9-1.51-7.17-.28-2.3,1.24-3.72,3.64-3.72,6.24v10.51c-1.65-3.44-2.83-8.34-2.83-12.26,0-6.11,3.02-11.3,5.52-11.53ZM47.99,91.41v10.18c-1.75-.74-3.1-2.41-3.35-4.33-.33-2.53,1.01-4.88,3.35-5.85Z"/>
  <path class="cls-1" d="M66.31,111.18l4.77,4.77c2.5-2.5,6.57-2.5,9.07,0l4.77-4.77c-5.13-5.13-13.48-5.13-18.61,0Z"/>
  <path class="cls-1" d="M69.43,98.08c0-1.74-1.41-3.16-3.16-3.16s-3.16,1.41-3.16,3.16,1.41,3.16,3.16,3.16,3.16-1.41,3.16-3.16Z"/>
  <path class="cls-1" d="M85.21,94.92c-1.74,0-3.16,1.41-3.16,3.16s1.41,3.16,3.16,3.16,3.16-1.41,3.16-3.16-1.41-3.16-3.16-3.16Z"/>
</svg>