<?xml version="1.0" encoding="UTF-8"?>
<svg id="Warstwa_1" data-name="Warstwa 1" xmlns="http://www.w3.org/2000/svg" viewBox="0 0 151.48 151.48">
  <defs>
    <style>
      .cls-1 {
        fill: #3d50f4;
      }
    </style>
  </defs>
  <path class="cls-1" d="M125.16,39.27c-5.69-12.03-15.72-21.13-28.25-25.62-25.86-9.26-54.44,4.24-63.73,30.18l-11.35,34.16c-.61,1.85-.29,3.89.86,5.46,1.16,1.57,3.02,2.48,4.93,2.45l14.65-.17-.08-6.75-13.63.16,11-33.11c8.01-22.36,32.72-34.04,55.08-26.03,10.83,3.88,19.5,11.75,24.42,22.15,4.92,10.4,5.49,22.1,1.61,32.93l-22.7,63.39,6.35,2.28,22.7-63.39c4.49-12.53,3.83-26.06-1.86-38.09Z"/>
  <path class="cls-1" d="M70.89,85.15h-23.56c-6.44,0-11.68,5.05-11.68,11.25v14.04c0,2.42.94,4.69,2.65,6.4s3.98,2.65,6.4,2.65h18.03l-3.52,9.76,6.35,2.29,3.97-11.01.1-.34c.45-1.81.05-3.68-1.1-5.15-1.15-1.47-2.87-2.31-4.73-2.31h-19.1c-.61,0-1.19-.24-1.62-.67-.43-.43-.67-1.01-.67-1.63v-3.87c1.5.68,3.17,1.07,4.93,1.07h23.56c6.44,0,11.68-5.05,11.68-11.25s-5.24-11.25-11.68-11.25ZM70.89,100.9h-23.56c-2.72,0-4.93-2.02-4.93-4.5s2.21-4.5,4.93-4.5h23.56c2.72,0,4.93,2.02,4.93,4.5s-2.21,4.5-4.93,4.5Z"/>
</svg>