<?xml version="1.0" encoding="UTF-8"?>
<svg id="Warstwa_1" data-name="Warstwa 1" xmlns="http://www.w3.org/2000/svg" viewBox="0 0 151.48 151.48">
  <defs>
    <style>
      .cls-1 {
        fill: #3d50f4;
      }
    </style>
  </defs>
  <path class="cls-1" d="M99.44,47.37c-11.27,1.07-19.76,10.42-19.76,21.75,0,12.05,9.8,21.85,21.85,21.85,11.33,0,20.68-8.5,21.75-19.76l-5.47-2.96c-1.96,1.57-4.33,2.4-6.84,2.4-6.05,0-10.98-4.92-10.98-10.98,0-2.51.83-4.88,2.4-6.84l-2.96-5.47ZM110.97,77.41c1.15,0,2.3-.11,3.43-.34-2.66,4.33-7.44,7.16-12.87,7.16-8.33,0-15.1-6.78-15.1-15.1,0-5.43,2.83-10.21,7.16-12.87-.22,1.12-.34,2.27-.34,3.43,0,9.77,7.95,17.73,17.73,17.73Z"/>
  <polygon class="cls-1" points="63.02 116.36 62.15 116.36 53.12 116.36 50.1 122.68 62.15 122.68 63.02 122.68 102.72 122.68 99.7 116.36 63.02 116.36"/>
  <path class="cls-1" d="M124.7,28.8H26.78c-6.55,0-11.88,5.33-11.88,11.88v16.72h6.75v-16.72c0-2.83,2.3-5.13,5.13-5.13h97.92c2.83,0,5.13,2.3,5.13,5.13v58.71c0,2.83-2.3,5.13-5.13,5.13H26.78c-2.83,0-5.13-2.3-5.13-5.13v-26.15h4.46l7.68,18.9h6.25l13.95-34.32,5.41,13.31,3.13,2.1h10.22v-6.75h-7.95l-7.68-18.9h-6.25l-13.95,34.32-5.41-13.31-3.13-2.1h-6.73s-6.75,0-6.75,0v32.9c0,6.55,5.33,11.88,11.88,11.88h97.92c6.55,0,11.88-5.33,11.88-11.88v-58.71c0-6.55-5.33-11.88-11.88-11.88Z"/>
</svg>