<?xml version="1.0" encoding="UTF-8"?>
<svg id="Warstwa_1" data-name="Warstwa 1" xmlns="http://www.w3.org/2000/svg" viewBox="0 0 151.48 151.48">
  <defs>
    <style>
      .cls-1 {
        fill: #3d50f4;
      }
    </style>
  </defs>
  <path class="cls-1" d="M94.52,56.01h-6.04l-4.27,8.54-8.54,4.27v6.04l8.54,4.27,4.27,8.59h6.04l4.27-8.59,8.54-4.27v-6.04l-8.54-4.27-4.27-8.54ZM94.77,73.59l-1.51,1.52-1.75,3.52-1.75-3.52-1.51-1.52-3.51-1.75,3.51-1.75,1.51-1.51,1.75-3.51,1.75,3.51,1.51,1.51,3.51,1.75-3.51,1.75Z"/>
  <path class="cls-1" d="M135.17,105.92l-3.07-17.04c-1.9-10.58-1.9-28.45.01-39.03l3.05-16.92c.35-1.96-.26-3.99-1.65-5.42-1.39-1.43-3.39-2.11-5.37-1.82l-27.28,4.04c-5.31.79-10.73,1.18-16.1,1.18h-18.05c-5.37,0-10.79-.4-16.1-1.18l-27.28-4.04c-1.97-.29-3.98.39-5.37,1.82-1.39,1.43-2,3.46-1.65,5.42l3.05,16.92c1.91,10.58,1.92,28.45.01,39.03l-3.07,17.04c-.35,1.96.27,3.99,1.65,5.42,1.39,1.43,3.39,2.11,5.37,1.82l21.41-3.17c6.98,9.61,18.29,15.87,31.04,15.87,20.07,0,36.87-15.67,38.25-35.68l-6.25-1.99c-4.36,7.17-11.96,11.45-20.34,11.45-13.12,0-23.79-10.67-23.79-23.79,0-8.38,4.28-15.98,11.45-20.34l-1.99-6.25c-20.01,1.38-35.68,18.18-35.68,38.25,0,5.79,1.3,11.28,3.6,16.21l-17.95,2.66,2.93-16.3c2.06-11.42,2.05-30.01-.01-41.43l-2.92-16.18,26.54,3.93c5.64.83,11.39,1.26,17.09,1.26h18.05c5.7,0,11.45-.42,17.09-1.26l26.54-3.93-2.92,16.18c-2.06,11.42-2.07,30.01-.01,41.43l2.93,16.3-7.98-1.18-.99,6.68,8.72,1.29c.3.04.6.07.9.07,1.67,0,3.29-.67,4.46-1.89,1.39-1.43,2-3.46,1.65-5.42ZM61.83,59.18c-3.17,4.86-4.92,10.61-4.92,16.68,0,16.84,13.7,30.54,30.54,30.54,6.06,0,11.81-1.75,16.68-4.92-5.19,10.47-16.01,17.64-28.34,17.64-17.42,0-31.6-14.18-31.6-31.6,0-12.32,7.17-23.15,17.64-28.34Z"/>
  <path class="cls-1" d="M110.45,59.24c1.74,0,3.16-1.41,3.16-3.16s-1.41-3.16-3.16-3.16-3.16,1.41-3.16,3.16,1.41,3.16,3.16,3.16Z"/>
</svg>