<?xml version="1.0" encoding="UTF-8"?>
<svg id="Warstwa_1" data-name="Warstwa 1" xmlns="http://www.w3.org/2000/svg" viewBox="0 0 151.48 151.48">
  <defs>
    <style>
      .cls-1 {
        fill: #3d50f4;
      }
    </style>
  </defs>
  <path class="cls-1" d="M137.43,72.88c-7.13-12.46-16.78-23.34-28.67-32.32-7.23-5.46-17.14-6.91-25.87-3.76-4.61,1.66-9.7,1.66-14.31,0-8.72-3.14-18.63-1.7-25.87,3.77-11.89,8.98-21.53,19.86-28.67,32.32l-4.47,7.81,8.76,10.18c8.77,10.19,20.53,17.78,34,21.93,7.57,2.33,15.4,3.51,23.34,3.51,1.61,0,3.22-.05,4.84-.15,4.57-.27,9.13-.94,13.56-1.99,1.69-.4,3.39-.86,5.05-1.37,13.47-4.15,25.23-11.74,34-21.93l8.76-10.18-4.47-7.81ZM128.02,86.48c-7.94,9.23-18.62,16.1-30.88,19.88-1.51.47-3.07.89-4.61,1.25-4.05.96-8.23,1.57-12.41,1.82-8.79.53-17.46-.51-25.79-3.08-12.26-3.78-22.94-10.65-30.88-19.88l-5.65-6.57,2.1-3.67c6.68-11.67,15.72-21.86,26.88-30.29,5.43-4.11,12.9-5.18,19.51-2.8,6.09,2.19,12.8,2.19,18.89,0,6.6-2.38,14.07-1.31,19.51,2.8,11.16,8.43,20.2,18.62,26.88,30.29l2.1,3.67-5.65,6.57Z"/>
  <path class="cls-1" d="M84.4,72.41c-2.77,1.11-5.68,1.67-8.66,1.67s-5.89-.56-8.66-1.67c-5.37-2.15-11.21-2.71-16.89-1.61l-26.61,5.17,1.29,6.63,26.61-5.17c4.4-.85,8.93-.42,13.09,1.25,3.57,1.43,7.33,2.16,11.17,2.16s7.6-.73,11.17-2.16c4.17-1.67,8.7-2.1,13.09-1.25l26.61,5.17,1.29-6.63-26.61-5.17c-5.68-1.1-11.52-.55-16.89,1.61Z"/>
</svg>