<?xml version="1.0" encoding="UTF-8"?>
<svg id="Warstwa_1" data-name="Warstwa 1" xmlns="http://www.w3.org/2000/svg" viewBox="0 0 151.48 151.48">
  <defs>
    <style>
      .cls-1 {
        fill: #3d50f4;
      }
    </style>
  </defs>
  <path class="cls-1" d="M75.74,93.76c12.29,0,22.3-10,22.3-22.3v-31.57c0-12.29-10-22.3-22.3-22.3s-22.3,10-22.3,22.3v31.57c0,12.29,10,22.3,22.3,22.3ZM75.74,24.34c8.57,0,15.55,6.97,15.55,15.55v31.57c0,8.57-6.97,15.55-15.55,15.55h0c-8.57,0-15.55-6.97-15.55-15.55h0s18.44,0,18.44,0l-3.02-6.31h-15.42v-6.31h18.44l-3.02-6.31h-15.42v-6.31h18.44l-3.02-6.31h-15.42c0-8.58,6.97-15.55,15.55-15.55Z"/>
  <path class="cls-1" d="M116.96,71.46h-6.75c0,19.01-15.46,34.47-34.47,34.47s-34.47-15.46-34.47-34.47h-6.75c0,21.59,16.69,39.35,37.85,41.07v21.35h6.75v-21.35c21.15-1.72,37.85-19.48,37.85-41.07Z"/>
</svg>