<?xml version="1.0" encoding="UTF-8"?>
<svg id="Warstwa_1" data-name="Warstwa 1" xmlns="http://www.w3.org/2000/svg" viewBox="0 0 151.48 151.48">
  <defs>
    <style>
      .cls-1 {
        fill: #3d50f4;
      }
    </style>
  </defs>
  <path class="cls-1" d="M73.85,114.45h-15.75c-6.13,0-11.69-3.13-14.87-8.38-3.18-5.25-3.39-11.62-.55-17.06L80.81,15.89l-5.99-3.12-38.13,73.12c-3.94,7.55-3.65,16.4.76,23.68,4.41,7.28,12.13,11.63,20.65,11.63h15.75c2.83,0,5.13,2.3,5.13,5.13v12.38h6.75v-12.38c0-6.55-5.33-11.88-11.88-11.88Z"/>
  <path class="cls-1" d="M82.04,91.41c-8.51-.14-16.29,4.14-20.79,11.36l5.73,3.57c3.25-5.2,8.81-8.29,14.98-8.19,6.13.08,11.65,3.28,14.77,8.57l5.82-3.43c-4.32-7.34-11.98-11.78-20.5-11.89Z"/>
  <path class="cls-1" d="M88.93,69.47v6.75c12.06,0,21.87,9.81,21.87,21.87,0,5.84-2.27,11.33-6.41,15.47l4.77,4.77c5.41-5.41,8.38-12.59,8.38-20.24,0-15.78-12.84-28.62-28.62-28.62Z"/>
</svg>